<?xml version="1.0" standalone="no"?>
<!DOCTYPE svg PUBLIC "-//W3C//DTD SVG 1.1//EN" "http://www.w3.org/Graphics/SVG/1.1/DTD/svg11.dtd">
<svg xmlns="http://www.w3.org/2000/svg" xmlns:xlink="http://www.w3.org/1999/xlink" version="1.1" id="Layer_1" width="550" height="400" xml:space="preserve" viewBox="0 0 550 400">
<g id="PathID_10" transform="matrix(1.11164, 0, 0, 1.64075, 301.45, 215.65)" opacity="1">
<path style="fill:#662D00;fill-opacity:1" d="M-97.6 11.9Q-93.2 10.4 -89.8 9.95L-87.2 9.8L-86.55 9L-86.45 9.05L-86.55 7.9Q-86.65 4.2 -86.1 0.2Q-85.2 -5.85 -83 -7.6L-73.35 -14.45Q-65.95 -19.85 -61.6 -24.15L-60 -22.4L-75.35 -8.8Q-77.55 -6.65 -79.2 -2.55Q-81.5 3.35 -79.05 8.05L-78.3 9.3Q-41.1 14.9 -17.25 16.8Q21.25 19.85 96.1 21.35Q100.1 21.45 93.35 22.2L69.15 23.6Q18.4 25.25 -80.6 22.5L-92.6 22.1L-93.4 22.1Q-96.75 22.1 -97.5 17L-97.6 11.9"/>
</g>
<g id="PathID_11" transform="matrix(1.64075, 0, 0, 1.64075, 212.25, 159.3)" opacity="1">
<path style="fill:#59B224;fill-opacity:1" d="M2.3 -5.2Q7.95 -0.75 7.7 7.25Q7.5 13.8 4.15 18.3Q-0.2 16.7 -3.6 11.35Q-10.4 0.6 -5.75 -18.3L-5.6 -17.2L-4.85 -14.2Q-2.95 -9.4 2.3 -5.2"/>
</g>
<g id="PathID_12" transform="matrix(1.64075, 0, 0, 1.64075, 272.6, 157.35)" opacity="1">
<path style="fill:#59B224;fill-opacity:1" d="M6.65 -9.95Q16.7 -4.1 25.45 9.85L15.9 8.3Q5.3 7.15 0.35 9.05L-6.65 11.8Q-11.3 13.4 -14.6 13.75Q-23.9 14.45 -25.3 4.65Q-26.2 -1.2 -21.8 -6.6Q-17.35 -12.15 -10.1 -13.4Q-1.9 -14.95 6.65 -9.95"/>
</g>
<g id="PathID_13" transform="matrix(1.01491, 0, 0, 1.01491, 312.2, 240.2)" opacity="1">
<path style="fill:#59B224;fill-opacity:1" d="M15.2 -19.75L15.2 -19.5L15.35 -19.55L15.45 -19.45L15.8 -19.7L16.4 -20.05Q26.45 -20.05 26.45 -13Q17.95 -2.6 10.9 -2.6L10.5 -4.4L9 -3.5Q6.95 -3.5 4.7 -6.7L5.3 -7.45Q4.45 -7.45 3.2 -16.55L2.85 -16.9L3.45 -23.65Q2.55 -23.65 2.55 -27.5L2.55 -28.95L4.7 -30.75L6.65 -30.75L7.85 -29.5L7.85 -25.65Q8.5 -21.3 8.7 -21.3Q12.5 -23.6 15.95 -24.25Q15.95 -24.75 19.05 -27.15L19.05 -27.45L12.6 -30.35L12.45 -30.05L11.7 -30.05Q11.05 -30.65 8.45 -30.65L5.4 -31.55Q5.4 -30.95 1.9 -30.65L0.7 -32.2L0.7 -33.15Q3.05 -36.25 5.8 -36.25Q10.4 -36.25 16.05 -34.35Q24.6 -30.2 24.6 -28.7Q24.6 -24.9 15.8 -19.7L15.35 -19.55L15.2 -19.75M9.35 -14.65L9.35 -14.35Q9.35 -10.85 11.25 -8.15Q16.1 -8.15 21.45 -13.95Q21.45 -14.3 19.7 -14.8L19.4 -14.45L16.35 -15.1L16.05 -14.8L15.5 -14.8L11.25 -15.1L10.2 -15.1L9.35 -14.65"/>
</g>
<g id="PathID_14" transform="matrix(1.01491, 0, 0, 1.01491, 338.9, 240.2)" opacity="1">
<path style="fill:#59B224;fill-opacity:1" d="M6.35 -30.35Q8.15 -30.35 9.5 -28.2L9.5 -27.15Q9 -25.55 5 -24.1L4.05 -24.1L3.2 -24.95L3.2 -27.6Q4.35 -30.35 6.35 -30.35M4.5 -19.5Q7.05 -19.5 7.45 -12.35L7.15 -12.05L7.15 -11.95Q7.15 -8.05 8.9 -5.35L8.9 -4.9Q8.9 -1.5 4.9 -1.5L4.35 -1.5Q2.6 -3.35 2.6 -7.95L2 -8.9L2.3 -11.35L2 -13.45L2.3 -14.35L2 -16.85L2 -17.6Q2.3 -18.8 4.5 -19.5"/>
</g>
<g id="PathID_15" transform="matrix(1.01491, 0, 0, 1.01491, 348.3, 240.2)" opacity="1">
<path style="fill:#59B224;fill-opacity:1" d="M5.2 -24.85Q14.75 -23.6 14.75 -21.05Q16.3 -19.5 17.15 -15.25L17.15 -14.95Q17.15 -8.95 12.05 -4.55L9.25 -3.7Q5.5 -3.7 2.45 -10.55L1.65 -16.25Q2.25 -24.05 4.35 -24.05L5.2 -24.85M7.5 -19.2L7.25 -18.1L7.25 -17.35Q8.45 -8.75 9.65 -8.75L10.55 -8.75Q13.2 -11.25 13.2 -13.5Q11.95 -19 7.5 -19L7.5 -19.2"/>
</g>
<g id="PathID_16" transform="matrix(1.32448, 0.233541, -0.233541, 1.32448, 225.85, 232)" opacity="1">
<path style="fill:#662D00;fill-opacity:1" d="M6.75 -35.65Q7.55 -33.75 13.4 -31.65L13.75 -31.35Q16.55 -30.4 17.8 -28.2Q22.45 -25.15 22.45 -20.75L22.75 -20.45L22.75 -19.95Q21.7 -14.95 17.9 -10.05Q12.25 -1.85 9.8 -1.85L9.25 -1.85L8.25 -3.05L8.15 -2.75L6.15 -2.75Q5.35 -2.75 3.8 -6.15L3.8 -7.45L3.2 -12.35L3.5 -15.4L2.9 -18.75L3.2 -20.65L3.2 -22.05L2.9 -24.7L3.2 -24.7L2.6 -25.7L3.2 -28.45L0.05 -29.25Q-1.65 -31.5 -1.65 -32.95Q0.25 -34.75 1.25 -34.75L2.9 -34.45Q2.9 -35.15 6.75 -35.65M8.7 -27.05Q8.8 -27.05 8.8 -26.95L9.1 -25.3L8.45 -24.45L9.1 -22.55L8.8 -22.25L9.35 -20.6L9.1 -19.05L9.1 -18.1L10.25 -8.3L10.45 -8.3Q16.9 -15.95 16.9 -18.45L16.9 -21Q15.5 -23.3 8.8 -26.95L8.8 -27.05L8.7 -27.05"/>
</g>
<g id="PathID_17" transform="matrix(1.32448, 0.233541, -0.233541, 1.32448, 257.9, 237.65)" opacity="1">
<path style="fill:#662D00;fill-opacity:1" d="M11.75 -12.7L11.45 -12.7L11.8 -12.5L12.95 -4.55Q12.3 -1.3 10.85 -1.3L9.05 -1.3L6.4 -4.6L6.8 -5.1L4.45 -16.55L4.85 -16.95L4.05 -23.4L4.05 -24.95L1.3 -35.2L1.3 -36.7L3.95 -39.35L4.75 -39.35Q9.8 -35.1 9.8 -26.05L10.1 -25.75L9.9 -25.55L10.2 -25.55L10.2 -25.65L10.1 -25.75Q18 -31.2 20.85 -34.6Q21.8 -34.6 26.4 -38.1L29.15 -38.55L31.5 -36.5L15.65 -22.4L14.95 -20.4Q19 -15.2 24.05 -14.5L26.55 -12.9L26.8 -13.3L28 -13.3L30.7 -10.65Q30.7 -6.85 27.15 -5.25L23.75 -5.25Q15.9 -9.25 11.8 -12.5L11.75 -12.7"/>
</g>
</svg>